HIERARCHY
ROOT hip
{
	OFFSET 0.000000 0.000000 0.000000 
	CHANNELS 6 Xposition Yposition Zposition Xrotation Zrotation Yrotation
	JOINT abdomen
	{
		OFFSET 0.000000 3.402643 0.000000 
		CHANNELS 3 Xrotation Zrotation Yrotation
		JOINT chest
		{
			OFFSET 0.000000 8.438565 -0.680529 
			CHANNELS 3 Xrotation Zrotation Yrotation
			JOINT neck
			{
				OFFSET 0.000000 10.207942 -0.272212 
				CHANNELS 3 Xrotation Zrotation Yrotation
				JOINT head
				{
					OFFSET 0.000000 3.130431 0.000000 
					CHANNELS 3 Xrotation Zrotation Yrotation
					End Site
					{
						OFFSET 0.000000 3.130435 0.000000 
					}
				}
			}
			JOINT lCollar
			{
				OFFSET 3.470700 6.669187 -0.816635 
				CHANNELS 3 Yrotation Zrotation Xrotation
				JOINT lShldr
				{
					OFFSET 3.198488 0.000000 0.000000 
					CHANNELS 3 Zrotation Yrotation Xrotation
					JOINT lForeArm
					{
						OFFSET 10.139888 0.000000 0.000000 
						CHANNELS 3 Yrotation Zrotation Xrotation
						JOINT lHand
						{
							OFFSET 8.370511 0.000000 0.000000 
							CHANNELS 3 Zrotation Yrotation Xrotation
							End Site
							{
								OFFSET 4.083176 0.000000 0.000000 
							}
						}
					}
				}
			}
			JOINT rCollar
			{
				OFFSET -3.470700 6.669187 -0.816635 
				CHANNELS 3 Yrotation Zrotation Xrotation
				JOINT rShldr
				{
					OFFSET -3.198488 0.000000 0.000000 
					CHANNELS 3 Zrotation Yrotation Xrotation
					JOINT rForeArm
					{
						OFFSET -10.139888 0.000000 0.000000 
						CHANNELS 3 Yrotation Zrotation Xrotation
						JOINT rHand
						{
							OFFSET -8.370511 0.000000 0.000000 
							CHANNELS 3 Zrotation Yrotation Xrotation
							End Site
							{
								OFFSET -4.083176 0.000000 0.000000 
							}
						}
					}
				}
			}
		}
	}
	JOINT lThigh
	{
		OFFSET 5.308129 -1.633274 1.361059 
		CHANNELS 3 Xrotation Zrotation Yrotation
		JOINT lShin
		{
			OFFSET -2.041588 -20.007561 0.000000 
			CHANNELS 3 Xrotation Zrotation Yrotation
			JOINT lFoot
			{
				OFFSET 0.000000 -19.190928 -1.224953 
				CHANNELS 3 Xrotation Yrotation Zrotation
				End Site
				{
					OFFSET 0.000000 -2.449906 4.627600 
				}
			}
		}
	}
	JOINT rThigh
	{
		OFFSET -5.308129 -1.633274 1.361059 
		CHANNELS 3 Xrotation Zrotation Yrotation
		JOINT rShin
		{
			OFFSET 2.041588 -20.007561 0.000000 
			CHANNELS 3 Xrotation Zrotation Yrotation
			JOINT rFoot
			{
				OFFSET 0.000000 -19.190928 -1.224953 
				CHANNELS 3 Xrotation Yrotation Zrotation
				End Site
				{
					OFFSET 0.000000 -2.449906 4.627600 
				}
			}
		}
	}
}
MOTION
Frames: 8
Frame Time: 0.033333
0.428898 33.631470 0.428898 0.000000 0.000000 2.187500 24.627171 6.782147 -10.398994 -5.908136 0.170108 7.505503 11.045333 1.732505 -0.339931 10.524219 0.508720 -0.030344 -3.919152 -1.501169 -10.238112 -58.323776 -29.824102 18.255655 -70.092712 -3.040101 1.499355 24.223305 13.247974 -60.290127 3.500209 7.405346 -10.627995 69.489983 40.419205 -19.241732 52.783546 2.764356 1.897318 73.357101 46.062832 116.575523 -54.343163 11.747212 12.299821 74.433502 1.877259 -4.653228 -16.627598 1.867696 2.641844 -28.681505 -21.083870 -21.604568 93.454117 -3.251796 4.494927 -46.849571 -5.670640 5.785767 
0.995228 34.797451 0.995228 0.000000 0.000000 2.187500 24.168102 7.321104 -3.865596 -6.835752 0.294126 7.503621 3.647293 5.304032 1.312570 10.524219 0.508720 -0.030344 -2.661751 2.684018 -17.505726 -65.106064 -17.014462 27.047199 -63.324856 -2.949396 1.669732 22.021227 17.002836 -61.561218 5.912844 10.538067 -18.503012 52.276081 29.443699 -42.373333 41.188843 2.519741 2.108489 68.530449 51.115078 118.783806 -51.938622 13.014576 17.492672 72.114571 1.702016 -4.643664 -13.274420 -3.661595 5.533708 -27.156618 -22.067801 -19.081352 89.162209 -2.948647 4.570826 -43.838764 -3.099580 8.232017 
1.722576 36.279903 1.722576 0.000000 0.000000 2.187500 23.810410 7.690575 1.443883 -7.616866 0.399766 7.504181 -2.302469 8.167846 2.043079 10.524219 0.508720 -0.030344 -1.530492 5.778973 -23.446560 -67.219795 -4.933525 32.733101 -56.548862 -2.839829 1.825702 19.676796 20.719257 -63.010464 7.907600 12.666919 -24.970472 41.051727 18.126215 -55.545288 32.087708 2.303969 2.238456 64.319977 55.415306 120.270081 -49.043144 14.531827 23.809896 69.561836 1.507566 -4.629901 -7.935107 -14.265514 9.667857 -24.531153 -22.948977 -16.832758 83.798859 -2.578241 4.631914 -41.110023 -0.631832 10.794522 
2.461032 37.168266 2.461032 0.000000 0.000000 4.726563 23.591543 7.486934 3.682168 -8.036703 0.457625 7.494446 -4.707273 8.694611 1.776720 10.524219 0.508720 -0.030344 -1.509832 6.383495 -25.000000 -64.327675 4.138058 34.290943 -50.656925 -2.730174 1.943533 17.960262 23.508821 -62.756237 8.225974 12.871455 -25.000000 37.937759 12.645987 -57.892841 29.239496 2.224153 2.275963 62.065083 57.618153 120.841896 -46.082813 15.760571 30.270214 67.193405 1.360628 -4.602395 -0.786904 -25.558823 15.426745 -21.942760 -23.680311 -14.886499 79.149292 -2.246081 4.653176 -39.342999 1.513065 12.986975 
3.060666 36.957287 3.060667 0.000000 0.000000 7.255858 23.452562 6.733335 2.997353 -8.173408 0.467405 7.495452 -3.713891 6.922493 0.786857 10.524219 0.508720 -0.030344 -2.721266 4.647707 -24.740976 -58.822403 10.339684 32.314980 -46.504898 -2.642290 2.018487 17.811407 24.578344 -58.774944 6.829878 11.338483 -25.000000 41.225193 13.106247 -53.426159 31.607113 2.293536 2.240115 61.515934 58.142361 120.955521 -45.105984 15.867061 33.382355 67.155205 1.350274 -4.588362 2.987730 -30.572914 19.595894 -21.246643 -23.607258 -13.690609 79.754204 -2.285163 4.639545 -41.126194 2.806612 13.399929 
3.765807 36.402058 3.765807 0.000000 0.000000 9.453125 23.348906 5.698978 1.032140 -8.251517 0.477085 7.496901 -1.182356 4.204728 -0.700923 10.524219 0.508720 -0.030344 -4.459124 1.832906 -22.233154 -54.125576 14.682888 28.894699 -44.966251 -2.607588 2.053123 19.832087 22.777689 -49.253727 4.709238 8.968250 -23.105833 46.671974 15.853600 -46.849499 35.492332 2.382701 2.198153 61.301018 58.341030 120.996239 -46.020367 15.100410 33.520779 69.307968 1.516383 -4.615224 1.883278 -30.095032 20.723848 -21.844826 -23.855181 -18.528032 84.939667 -2.656200 4.622535 -45.182983 7.488537 9.941087 
4.826295 35.652500 4.826295 0.000000 0.000000 10.976563 23.335779 4.480527 -1.860355 -8.241752 0.477067 7.496984 2.529002 0.993340 -2.783937 10.524219 0.508720 -0.030344 -6.506453 -1.752565 -18.755774 -52.898754 15.349925 24.986399 -49.443859 -2.707849 1.968927 24.226746 12.557490 -27.043446 2.141009 5.964375 -19.080990 53.719761 20.237015 -37.935070 40.554764 2.508945 2.117900 61.389004 58.255974 120.981361 -47.314323 14.130869 33.319782 71.987587 1.679760 -4.664432 -0.013000 -28.896761 21.570417 -22.821194 -24.322924 -24.119852 91.053276 -3.085874 4.566151 -49.179478 12.576138 5.806695 
6.103312 34.852966 6.103312 0.000000 0.000000 11.484375 23.457874 3.169673 -5.291203 -8.124578 0.467317 7.495852 7.049815 -2.296656 -5.470266 10.524219 0.508720 -0.030344 -8.647506 -5.818243 -14.760675 -54.392418 11.865754 21.441656 -59.485367 -2.891110 1.750415 22.739002 -6.123971 4.725728 -0.600686 2.520351 -14.534123 61.905804 25.458761 -26.480387 46.493828 2.637591 2.017619 61.732956 57.936081 120.921272 -48.852409 12.982386 32.882275 75.057076 1.915716 -4.664482 -2.514654 -27.144844 22.172052 -23.211723 -24.584229 -30.370958 96.722115 -3.485805 4.437574 -52.708393 17.666647 1.101940 
